<mxfile host="app.diagrams.net" modified="2023-11-09T13:01:48.287Z" agent="Mozilla/5.0 (Windows NT 10.0; Win64; x64) AppleWebKit/537.36 (KHTML, like Gecko) Chrome/119.0.0.0 Safari/537.36" etag="_FliPdpcoYTJVddqTwvr" version="22.1.0" type="github" pages="3">
  <diagram id="C5RBs43oDa-KdzZeNtuy" name="erase">
    <mxGraphModel dx="498" dy="593" grid="1" gridSize="10" guides="1" tooltips="1" connect="1" arrows="1" fold="1" page="1" pageScale="1" pageWidth="827" pageHeight="1169" math="0" shadow="0">
      <root>
        <mxCell id="WIyWlLk6GJQsqaUBKTNV-0" />
        <mxCell id="WIyWlLk6GJQsqaUBKTNV-1" parent="WIyWlLk6GJQsqaUBKTNV-0" />
        <mxCell id="sM0wQi_IrtM0gP7HsVci-3" value="" style="edgeStyle=orthogonalEdgeStyle;rounded=0;orthogonalLoop=1;jettySize=auto;html=1;" edge="1" parent="WIyWlLk6GJQsqaUBKTNV-1" source="sM0wQi_IrtM0gP7HsVci-1" target="sM0wQi_IrtM0gP7HsVci-2">
          <mxGeometry relative="1" as="geometry" />
        </mxCell>
        <mxCell id="sM0wQi_IrtM0gP7HsVci-1" value="erase(float **array, int *len, int pos)" style="ellipse;whiteSpace=wrap;html=1;" vertex="1" parent="WIyWlLk6GJQsqaUBKTNV-1">
          <mxGeometry x="354" y="280" width="120" height="80" as="geometry" />
        </mxCell>
        <mxCell id="sM0wQi_IrtM0gP7HsVci-6" value="" style="edgeStyle=orthogonalEdgeStyle;rounded=0;orthogonalLoop=1;jettySize=auto;html=1;entryX=0.5;entryY=0;entryDx=0;entryDy=0;" edge="1" parent="WIyWlLk6GJQsqaUBKTNV-1" source="sM0wQi_IrtM0gP7HsVci-2" target="sM0wQi_IrtM0gP7HsVci-4">
          <mxGeometry relative="1" as="geometry" />
        </mxCell>
        <mxCell id="sM0wQi_IrtM0gP7HsVci-8" style="edgeStyle=orthogonalEdgeStyle;rounded=0;orthogonalLoop=1;jettySize=auto;html=1;exitX=0;exitY=0.5;exitDx=0;exitDy=0;entryX=0.5;entryY=0;entryDx=0;entryDy=0;" edge="1" parent="WIyWlLk6GJQsqaUBKTNV-1" source="sM0wQi_IrtM0gP7HsVci-2" target="sM0wQi_IrtM0gP7HsVci-7">
          <mxGeometry relative="1" as="geometry">
            <mxPoint x="290" y="500" as="targetPoint" />
          </mxGeometry>
        </mxCell>
        <mxCell id="sM0wQi_IrtM0gP7HsVci-2" value="pos &amp;gt;= *len" style="rhombus;whiteSpace=wrap;html=1;" vertex="1" parent="WIyWlLk6GJQsqaUBKTNV-1">
          <mxGeometry x="374" y="390" width="76" height="80" as="geometry" />
        </mxCell>
        <mxCell id="sM0wQi_IrtM0gP7HsVci-4" value="return BAD_POS" style="ellipse;whiteSpace=wrap;html=1;" vertex="1" parent="WIyWlLk6GJQsqaUBKTNV-1">
          <mxGeometry x="460" y="460" width="120" height="80" as="geometry" />
        </mxCell>
        <mxCell id="sM0wQi_IrtM0gP7HsVci-18" style="edgeStyle=orthogonalEdgeStyle;rounded=0;orthogonalLoop=1;jettySize=auto;html=1;exitX=1;exitY=0.5;exitDx=0;exitDy=0;entryX=0.5;entryY=0;entryDx=0;entryDy=0;" edge="1" parent="WIyWlLk6GJQsqaUBKTNV-1" source="sM0wQi_IrtM0gP7HsVci-7" target="sM0wQi_IrtM0gP7HsVci-11">
          <mxGeometry relative="1" as="geometry" />
        </mxCell>
        <mxCell id="sM0wQi_IrtM0gP7HsVci-7" value="i = pos; i&amp;lt; *len-1; ++i" style="shape=hexagon;perimeter=hexagonPerimeter2;whiteSpace=wrap;html=1;fixedSize=1;" vertex="1" parent="WIyWlLk6GJQsqaUBKTNV-1">
          <mxGeometry x="200" y="505" width="120" height="80" as="geometry" />
        </mxCell>
        <mxCell id="sM0wQi_IrtM0gP7HsVci-17" style="edgeStyle=orthogonalEdgeStyle;rounded=0;orthogonalLoop=1;jettySize=auto;html=1;exitX=0.5;exitY=1;exitDx=0;exitDy=0;entryX=0;entryY=0.5;entryDx=0;entryDy=0;" edge="1" parent="WIyWlLk6GJQsqaUBKTNV-1" source="sM0wQi_IrtM0gP7HsVci-9" target="sM0wQi_IrtM0gP7HsVci-7">
          <mxGeometry relative="1" as="geometry" />
        </mxCell>
        <mxCell id="sM0wQi_IrtM0gP7HsVci-9" value="(*array)[i]=(*array)[i+1]" style="rounded=0;whiteSpace=wrap;html=1;" vertex="1" parent="WIyWlLk6GJQsqaUBKTNV-1">
          <mxGeometry x="200" y="610" width="120" height="60" as="geometry" />
        </mxCell>
        <mxCell id="sM0wQi_IrtM0gP7HsVci-10" style="edgeStyle=orthogonalEdgeStyle;rounded=0;orthogonalLoop=1;jettySize=auto;html=1;exitX=0.5;exitY=1;exitDx=0;exitDy=0;entryX=0.5;entryY=0;entryDx=0;entryDy=0;" edge="1" parent="WIyWlLk6GJQsqaUBKTNV-1" source="sM0wQi_IrtM0gP7HsVci-7">
          <mxGeometry relative="1" as="geometry">
            <mxPoint x="260" y="610" as="targetPoint" />
          </mxGeometry>
        </mxCell>
        <mxCell id="sM0wQi_IrtM0gP7HsVci-14" style="edgeStyle=orthogonalEdgeStyle;rounded=0;orthogonalLoop=1;jettySize=auto;html=1;exitX=0.5;exitY=1;exitDx=0;exitDy=0;entryX=0.5;entryY=0;entryDx=0;entryDy=0;" edge="1" parent="WIyWlLk6GJQsqaUBKTNV-1" source="sM0wQi_IrtM0gP7HsVci-11" target="sM0wQi_IrtM0gP7HsVci-13">
          <mxGeometry relative="1" as="geometry" />
        </mxCell>
        <mxCell id="sM0wQi_IrtM0gP7HsVci-11" value="*array=realloc(*array,(*len-1)*sizeof(float))" style="rounded=0;whiteSpace=wrap;html=1;" vertex="1" parent="WIyWlLk6GJQsqaUBKTNV-1">
          <mxGeometry x="354" y="610" width="120" height="60" as="geometry" />
        </mxCell>
        <mxCell id="sM0wQi_IrtM0gP7HsVci-16" style="edgeStyle=orthogonalEdgeStyle;rounded=0;orthogonalLoop=1;jettySize=auto;html=1;exitX=0.5;exitY=1;exitDx=0;exitDy=0;entryX=0.5;entryY=0;entryDx=0;entryDy=0;" edge="1" parent="WIyWlLk6GJQsqaUBKTNV-1" source="sM0wQi_IrtM0gP7HsVci-13" target="sM0wQi_IrtM0gP7HsVci-15">
          <mxGeometry relative="1" as="geometry" />
        </mxCell>
        <mxCell id="sM0wQi_IrtM0gP7HsVci-13" value="--(*len)" style="rounded=0;whiteSpace=wrap;html=1;" vertex="1" parent="WIyWlLk6GJQsqaUBKTNV-1">
          <mxGeometry x="354" y="690" width="120" height="60" as="geometry" />
        </mxCell>
        <mxCell id="sM0wQi_IrtM0gP7HsVci-15" value="return 1" style="ellipse;whiteSpace=wrap;html=1;" vertex="1" parent="WIyWlLk6GJQsqaUBKTNV-1">
          <mxGeometry x="354" y="770" width="120" height="80" as="geometry" />
        </mxCell>
      </root>
    </mxGraphModel>
  </diagram>
  <diagram id="azw_Qv2uRijNaIMGIsH7" name="get_int_part_of_float_after_dot">
    <mxGraphModel dx="498" dy="593" grid="1" gridSize="10" guides="1" tooltips="1" connect="1" arrows="1" fold="1" page="1" pageScale="1" pageWidth="850" pageHeight="1100" math="0" shadow="0">
      <root>
        <mxCell id="0" />
        <mxCell id="1" parent="0" />
        <mxCell id="ThukVESoDSkCc5Y6Qpso-3" style="edgeStyle=orthogonalEdgeStyle;rounded=0;orthogonalLoop=1;jettySize=auto;html=1;exitX=0.5;exitY=1;exitDx=0;exitDy=0;entryX=0.5;entryY=0;entryDx=0;entryDy=0;" edge="1" parent="1" source="ThukVESoDSkCc5Y6Qpso-1" target="ThukVESoDSkCc5Y6Qpso-2">
          <mxGeometry relative="1" as="geometry" />
        </mxCell>
        <mxCell id="ThukVESoDSkCc5Y6Qpso-1" value="get_int_part_of_float_after_dot(float number)" style="ellipse;whiteSpace=wrap;html=1;" vertex="1" parent="1">
          <mxGeometry x="170" y="100" width="120" height="80" as="geometry" />
        </mxCell>
        <mxCell id="ThukVESoDSkCc5Y6Qpso-5" style="edgeStyle=orthogonalEdgeStyle;rounded=0;orthogonalLoop=1;jettySize=auto;html=1;exitX=0.5;exitY=1;exitDx=0;exitDy=0;entryX=0.5;entryY=0;entryDx=0;entryDy=0;" edge="1" parent="1" source="ThukVESoDSkCc5Y6Qpso-2" target="ThukVESoDSkCc5Y6Qpso-4">
          <mxGeometry relative="1" as="geometry" />
        </mxCell>
        <mxCell id="ThukVESoDSkCc5Y6Qpso-2" value="accuracy=1" style="rounded=0;whiteSpace=wrap;html=1;" vertex="1" parent="1">
          <mxGeometry x="170" y="200" width="120" height="60" as="geometry" />
        </mxCell>
        <mxCell id="ThukVESoDSkCc5Y6Qpso-7" style="edgeStyle=orthogonalEdgeStyle;rounded=0;orthogonalLoop=1;jettySize=auto;html=1;exitX=0.5;exitY=1;exitDx=0;exitDy=0;entryX=0.5;entryY=0;entryDx=0;entryDy=0;" edge="1" parent="1" source="ThukVESoDSkCc5Y6Qpso-4" target="ThukVESoDSkCc5Y6Qpso-6">
          <mxGeometry relative="1" as="geometry" />
        </mxCell>
        <mxCell id="ThukVESoDSkCc5Y6Qpso-10" style="edgeStyle=orthogonalEdgeStyle;rounded=0;orthogonalLoop=1;jettySize=auto;html=1;exitX=1;exitY=0.5;exitDx=0;exitDy=0;entryX=0.5;entryY=0;entryDx=0;entryDy=0;" edge="1" parent="1" source="ThukVESoDSkCc5Y6Qpso-4" target="ThukVESoDSkCc5Y6Qpso-9">
          <mxGeometry relative="1" as="geometry">
            <Array as="points">
              <mxPoint x="310" y="320" />
              <mxPoint x="310" y="470" />
              <mxPoint x="230" y="470" />
            </Array>
          </mxGeometry>
        </mxCell>
        <mxCell id="ThukVESoDSkCc5Y6Qpso-4" value="i=0; i&amp;lt;ACCURACY; ++i" style="shape=hexagon;perimeter=hexagonPerimeter2;whiteSpace=wrap;html=1;fixedSize=1;" vertex="1" parent="1">
          <mxGeometry x="170" y="280" width="120" height="80" as="geometry" />
        </mxCell>
        <mxCell id="ThukVESoDSkCc5Y6Qpso-8" style="edgeStyle=orthogonalEdgeStyle;rounded=0;orthogonalLoop=1;jettySize=auto;html=1;exitX=0.5;exitY=1;exitDx=0;exitDy=0;entryX=0;entryY=0.5;entryDx=0;entryDy=0;" edge="1" parent="1" source="ThukVESoDSkCc5Y6Qpso-6" target="ThukVESoDSkCc5Y6Qpso-4">
          <mxGeometry relative="1" as="geometry" />
        </mxCell>
        <mxCell id="ThukVESoDSkCc5Y6Qpso-6" value="accuracu *= 10" style="rounded=0;whiteSpace=wrap;html=1;" vertex="1" parent="1">
          <mxGeometry x="170" y="380" width="120" height="60" as="geometry" />
        </mxCell>
        <mxCell id="ThukVESoDSkCc5Y6Qpso-9" value="return (number - (int)number)*accuracy" style="ellipse;whiteSpace=wrap;html=1;" vertex="1" parent="1">
          <mxGeometry x="170" y="490" width="120" height="80" as="geometry" />
        </mxCell>
      </root>
    </mxGraphModel>
  </diagram>
  <diagram id="xgvF-o_NNytcLlJQPF5O" name="insert">
    <mxGraphModel dx="498" dy="593" grid="1" gridSize="10" guides="1" tooltips="1" connect="1" arrows="1" fold="1" page="1" pageScale="1" pageWidth="850" pageHeight="1100" math="0" shadow="0">
      <root>
        <mxCell id="0" />
        <mxCell id="1" parent="0" />
      </root>
    </mxGraphModel>
  </diagram>
</mxfile>
